<?xml version="1.0" standalone="no"?>
<!DOCTYPE svg PUBLIC "-//W3C//DTD SVG 20010904//EN"
 "http://www.w3.org/TR/2001/REC-SVG-20010904/DTD/svg10.dtd">
<svg version="1.0" xmlns="http://www.w3.org/2000/svg"
 width="1022.000000pt" height="113.000000pt" viewBox="0 0 1022.000000 113.000000"
 preserveAspectRatio="xMidYMid meet">

<g transform="translate(0.000000,113.000000) scale(0.100000,-0.100000)"
fill="#000000" stroke="none">
<path d="M477 1078 c10 -24 106 -266 213 -538 l196 -495 147 -3 146 -3 -33 78
c-18 43 -120 286 -226 541 l-193 462 -134 0 -133 0 17 -42z"/>
<path d="M1430 1013 l0 -109 377 -432 377 -432 108 0 108 0 0 78 -1 77 -387
460 -387 460 -98 3 -97 3 0 -108z"/>
<path d="M2150 1003 l1 -118 115 -130 c63 -71 121 -137 129 -145 13 -12 15 18
15 248 l0 262 -130 0 -130 0 0 -117z"/>
<path d="M2787 1101 c12 -10 67 -50 121 -90 l99 -71 302 0 301 0 0 90 0 90
-422 0 c-412 -1 -422 -1 -401 -19z"/>
<path d="M4237 1078 c10 -24 105 -266 213 -538 l196 -495 147 -3 146 -3 -33
78 c-18 43 -120 286 -226 541 l-193 462 -134 0 -133 0 17 -42z"/>
<path d="M5996 1109 c-128 -21 -230 -75 -318 -167 -158 -166 -193 -422 -86
-640 39 -80 139 -185 215 -225 165 -88 423 -88 586 0 28 16 77 52 110 82 l59
55 -39 32 -38 32 -53 -49 c-205 -187 -540 -160 -704 56 -56 74 -80 144 -86
251 -7 147 36 261 133 353 183 173 469 174 656 3 l54 -50 37 27 c21 14 38 29
38 32 0 4 -29 34 -65 67 -128 120 -313 173 -499 141z"/>
<path d="M9638 1110 c-164 -30 -304 -127 -392 -273 -87 -145 -88 -380 -4 -541
41 -77 147 -185 217 -220 78 -40 191 -66 285 -66 165 1 302 50 407 147 l61 57
-34 28 c-41 34 -49 34 -78 3 -38 -40 -125 -94 -183 -114 -340 -116 -675 148
-626 494 16 114 55 191 136 267 184 171 471 170 654 -2 l53 -50 33 26 c18 14
33 31 33 37 0 17 -86 99 -137 131 -105 64 -299 99 -425 76z"/>
<path d="M6780 565 l0 -525 255 0 255 0 0 45 0 45 -202 2 -203 3 -3 478 -2
477 -50 0 -50 0 0 -525z"/>
<path d="M7450 565 l0 -525 50 0 50 0 0 525 0 525 -50 0 -50 0 0 -525z"/>
<path d="M7800 566 l0 -526 50 0 50 0 0 395 c0 217 4 395 8 395 5 0 163 -178
352 -395 190 -217 350 -395 357 -395 10 0 13 107 13 525 l0 525 -50 0 -50 0
-2 -405 -3 -405 -350 402 c-192 221 -356 404 -362 406 -10 3 -13 -106 -13
-522z"/>
<path d="M8880 565 l0 -525 50 0 50 0 0 525 0 525 -50 0 -50 0 0 -525z"/>
<path d="M2752 448 l3 -413 123 -3 122 -3 0 236 0 235 260 0 260 0 0 90 0 90
-261 0 -260 0 -118 90 c-65 50 -121 90 -125 90 -3 0 -5 -186 -4 -412z"/>
<path d="M160 413 c-80 -196 -147 -360 -148 -365 -2 -5 58 -7 134 -6 l137 3
47 105 48 105 71 3 c39 2 71 6 71 9 0 13 -205 503 -210 503 -3 0 -70 -161
-150 -357z"/>
<path d="M3920 413 c-80 -196 -147 -360 -148 -365 -2 -5 58 -7 134 -6 l137 3
47 105 47 105 71 3 c40 2 72 6 72 10 0 12 -205 502 -210 502 -3 0 -70 -161
-150 -357z"/>
<path d="M1430 302 l0 -262 130 0 130 0 0 115 0 115 -116 132 c-65 73 -123
140 -130 148 -12 12 -14 -27 -14 -248z"/>
</g>
</svg>
